<svg id="Layer_1" data-name="Layer 1" xmlns="http://www.w3.org/2000/svg" viewBox="0 0 326 108"><defs><style>.cls-1{fill:none;}.cls-2{fill:#fff;}</style></defs><path class="cls-1" d="M0,0H326V108H0ZM193.24,33.13c-.54,4.78-.12,9.6-.22,14.4-2.08-2-4.24-4.17-7.19-4.69a16.71,16.71,0,0,0-15.15,5.88c-5.74,6.71-6.05,17.35-1,24.51A17,17,0,0,0,185,80.46c3.26-.34,5.64-2.83,8-4.89.9,1.49.95,4.11,3.1,4.33a21.3,21.3,0,0,0,6.76-.22c1.55-.59,1.1-2.34,1.22-3.63-.11-14,.16-28-.12-42.06l-.72-1.25C200,32.06,196.15,31.56,193.24,33.13Zm44.15,1.09c-.36,4.43-.07,8.88-.12,13.31-2.12-2-4.24-4.38-7.29-4.72a17.4,17.4,0,0,0-10.88,2.35C212.84,49,209.78,56.81,210.66,64c.63,8.44,7.61,16.16,16.26,16.55,4.2.66,7.68-2.22,10.35-5.08,1,1.63,1,4.81,3.6,4.53a18.16,18.16,0,0,0,6.85-.48c.93-1.26.35-3,.55-4.52-.12-13.75.14-27.51-.12-41.25-.88-2-3.44-1.29-5.15-1.5C241.08,32.38,237.76,31.52,237.39,34.22ZM256,34.9c.07,14.89-.3,29.8.21,44.68a31.29,31.29,0,0,0,10.31,0c.79-4.48.35-9,.45-13.55-.09-10.66.17-21.34-.12-32-.69-2.71-3.95-1.6-6-1.86C258.92,32.21,255.62,31.93,256,34.9ZM17.27,37.2c-2.81.74-6.59,1.44-7.16,4.88a65.31,65.31,0,0,0-.65,20.83c.83,4.08,5.93,3.43,9.05,4.16-.07,3.9-.62,7.81-.17,11.71.69,2.47,4.48,2.08,5.26-.15a54.7,54.7,0,0,1,7.57-10.79c8.63,0,17.27-.39,25.88-1.1a6.49,6.49,0,0,0,5.86-4.83C64.62,56.11,64.88,50,65,44c.16-3.3-1.16-7.18-4.61-8.26C46.39,30.94,31.25,33.64,17.27,37.2Zm64,.07c-.52,4.55-.11,9.13-.23,13.7.18,9.57-.37,19.19.27,28.73,3.49.13,7.8,1.3,10.83-.68.37-5.58.05-11.18.15-16.77H106.5c0,5.82,0,11.63,0,17.45a44.64,44.64,0,0,0,10.65,0,24.3,24.3,0,0,0,.36-5.72c-.12-12.32.12-24.64-.14-36.95q-5.39-.15-10.79,0c-.19,5-.08,10-.1,14.92H92.25c0-5,.14-9.9-.18-14.83A55.29,55.29,0,0,0,81.23,37.27Zm44.5,11.78c.34,6.85-.72,13.83.78,20.57,1.64,7.06,9.19,12.27,16.38,10.52,3.39-.67,5.87-3.23,7.71-6l.88,3.42c.75,3.91,6,2.33,8.74,1.72.06-11.85,0-23.71,0-35.56a33.48,33.48,0,0,0-10-.32c-.19.28-.55.85-.73,1.14-.62,6.82.11,13.72-.32,20.57a6.51,6.51,0,0,1-3.55,4.37c-3.57,2.1-8.64-.83-9-4.85-.34-6.86.23-13.75-.24-20.6-2.23-1.63-5.66-.53-8.36-.76C124.74,43.06,126,47.05,125.73,49.05Zm148.19,19.2a19.25,19.25,0,0,0,21.14,11.9C299.3,79.51,303,77,305.89,74a23.84,23.84,0,0,0-5.14-5.91c-3,.7-5.4,3.53-8.77,3.2-4.16.64-7.8-2.32-9-6.17,7.71-.35,15.45.22,23.15-.29,2.93-.17,2.46-3.79,2.33-5.84C307.88,48.68,297,40.58,287,43.06,276.09,45.12,269.78,58.2,273.92,68.25Z"/><path class="cls-1" d="M14.86,40.62c14-3.93,29.09-7,43.39-2.91a5.06,5.06,0,0,1,4.17,5.34c-.13,5.65-.32,11.38-1.67,16.9-.43,1.85-1.56,3.94-3.7,4.06A202.62,202.62,0,0,1,30.18,65.1,58,58,0,0,0,20.86,78c0-4.41.17-8.82.18-13.23-2.94-.65-6.29-.32-8.9-1.85-1-6-.59-12.07,0-18C12.43,43.17,12.73,40.83,14.86,40.62Zm8.56,5.88c-2.49,1.6-2.66,5.74-.12,7.38s6.37-.9,6-3.9C29.56,47,25.92,44.49,23.42,46.5Zm12.9-.24c-2.38,1-4.16,4.44-2.32,6.67,1.61,2.13,5,1.56,6.38-.53C42.48,49.84,39.59,44.91,36.32,46.26Zm12,.1a4.1,4.1,0,0,0-2.7,5.93c1.3,3.2,6.63,3,7.53-.4C54.53,48.9,51.41,45.69,48.37,46.36Z"/><path class="cls-1" d="M24.69,51.39c-1.94-.8.47-2.92,1.48-3.54C26.64,49.14,27,52.9,24.69,51.39Z"/><path class="cls-1" d="M36.45,49.13c1.53-1.27,3,1.46,1.42,2.34C36.32,52.73,34.89,50,36.45,49.13Z"/><path class="cls-1" d="M47.9,49.17l3.2,0c-.44,1.53-.86,3.67-3,2.75C48.06,51.22,48,49.85,47.9,49.17Z"/><path class="cls-1" d="M283.43,56.68c1.84-2.89,4.78-6,8.57-5.11,3,.26,4.81,2.91,6.42,5.15C293.42,56.76,288.42,56.81,283.43,56.68Z"/><path class="cls-1" d="M181.23,53.17c5.87-2.93,13.21,2.57,12.54,9-.1,6.08-7.23,10.42-12.68,7.68C174.81,66.7,175,56.24,181.23,53.17Z"/><path class="cls-1" d="M225.27,53.36c5.47-3.1,12.77,1.51,12.88,7.64.66,6.22-6.19,11.42-12,9.09C219.38,67.58,219.08,56.68,225.27,53.36Z"/><path class="cls-2" d="M193.24,33.13c2.91-1.57,6.79-1.07,9.93-.39l.72,1.25c.28,14,0,28,.12,42.06-.12,1.29.33,3-1.22,3.63a21.3,21.3,0,0,1-6.76.22c-2.15-.22-2.2-2.84-3.1-4.33-2.32,2.06-4.7,4.55-8,4.89a17,17,0,0,1-15.26-7.23c-5.08-7.16-4.77-17.8,1-24.51a16.71,16.71,0,0,1,15.15-5.88c2.95.52,5.11,2.72,7.19,4.69C193.12,42.73,192.7,37.91,193.24,33.13Zm-12,20c-6.26,3.07-6.42,13.53-.14,16.64,5.45,2.74,12.58-1.6,12.68-7.68C194.44,55.74,187.1,50.24,181.23,53.17Z"/><path class="cls-2" d="M237.39,34.22c.37-2.7,3.69-1.84,5.61-2,1.71.21,4.27-.49,5.15,1.5.26,13.74,0,27.5.12,41.25-.2,1.47.38,3.26-.55,4.52a18.16,18.16,0,0,1-6.85.48c-2.56.28-2.61-2.9-3.6-4.53-2.67,2.86-6.15,5.74-10.35,5.08-8.65-.39-15.63-8.11-16.26-16.55-.88-7.14,2.18-15,8.44-18.79A17.4,17.4,0,0,1,230,42.81c3.05.34,5.17,2.77,7.29,4.72C237.32,43.1,237,38.65,237.39,34.22ZM225.27,53.36c-6.19,3.32-5.89,14.22.87,16.73,5.82,2.33,12.67-2.87,12-9.09C238,54.87,230.74,50.26,225.27,53.36Z"/><path class="cls-2" d="M256,34.9c-.41-3,2.89-2.69,4.88-2.7,2,.26,5.28-.85,6,1.86.29,10.65,0,21.33.12,32-.1,4.51.34,9.07-.45,13.55a31.29,31.29,0,0,1-10.31,0C255.73,64.7,256.1,49.79,256,34.9Z"/><path class="cls-2" d="M81.23,37.27a55.29,55.29,0,0,1,10.84-.1c.32,4.93.14,9.88.18,14.83H106.5c0-5-.09-10,.1-14.92q5.4-.15,10.79,0c.26,12.31,0,24.63.14,36.95a24.3,24.3,0,0,1-.36,5.72,44.64,44.64,0,0,1-10.65,0c0-5.82,0-11.63,0-17.45H92.25c-.1,5.59.22,11.19-.15,16.77-3,2-7.34.81-10.83.68C80.63,70.16,81.18,60.54,81,51,81.12,46.4,80.71,41.82,81.23,37.27Z"/><path class="cls-2" d="M125.73,49.05c.27-2-1-6,2.25-5.77,2.7.23,6.13-.87,8.36.76.47,6.85-.1,13.74.24,20.6.37,4,5.44,7,9,4.85a6.51,6.51,0,0,0,3.55-4.37c.43-6.85-.3-13.75.32-20.57.18-.29.54-.86.73-1.14a33.48,33.48,0,0,1,10,.32c0,11.85.05,23.71,0,35.56-2.77.61-8,2.19-8.74-1.72l-.88-3.42c-1.84,2.76-4.32,5.32-7.71,6-7.19,1.75-14.74-3.46-16.38-10.52C125,62.88,126.07,55.9,125.73,49.05Z"/><path class="cls-2" d="M273.92,68.25c-4.14-10,2.17-23.13,13.07-25.19,10-2.48,20.89,5.62,21.48,15.91.13,2.05.6,5.67-2.33,5.84-7.7.51-15.44-.06-23.15.29,1.19,3.85,4.83,6.81,9,6.17,3.37.33,5.79-2.5,8.77-3.2A23.84,23.84,0,0,1,305.89,74c-2.93,3-6.59,5.53-10.83,6.17A19.25,19.25,0,0,1,273.92,68.25Zm9.51-11.57c5,.13,10,.08,15,0-1.61-2.24-3.39-4.89-6.42-5.15C288.21,50.72,285.27,53.79,283.43,56.68Z"/><path class="cls-2" d="M17.27,37.2c14-3.56,29.12-6.26,43.15-1.5,3.45,1.08,4.77,5,4.61,8.26-.15,6-.41,12.15-2.12,17.95a6.49,6.49,0,0,1-5.86,4.83c-8.61.71-17.25,1.13-25.88,1.1A54.7,54.7,0,0,0,23.6,78.63c-.78,2.23-4.57,2.62-5.26.15-.45-3.9.1-7.81.17-11.71-3.12-.73-8.22-.08-9-4.16a65.31,65.31,0,0,1,.65-20.83C10.68,38.64,14.46,37.94,17.27,37.2Zm-2.41,3.42c-2.13.21-2.43,2.55-2.67,4.24-.64,6-1.06,12.09,0,18,2.61,1.53,6,1.2,8.9,1.85,0,4.41-.18,8.82-.18,13.23A58,58,0,0,1,30.18,65.1,202.62,202.62,0,0,0,57.05,64c2.14-.12,3.27-2.21,3.7-4.06,1.35-5.52,1.54-11.25,1.67-16.9a5.06,5.06,0,0,0-4.17-5.34C44,33.63,28.84,36.69,14.86,40.62Z"/><path class="cls-2" d="M23.42,46.5c2.5-2,6.14.51,5.89,3.48.36,3-3.41,5.56-6,3.9S20.93,48.1,23.42,46.5Zm1.27,4.89c2.32,1.51,1.95-2.25,1.48-3.54C25.16,48.47,22.75,50.59,24.69,51.39Z"/><path class="cls-2" d="M36.32,46.26c3.27-1.35,6.16,3.58,4.06,6.14-1.37,2.09-4.77,2.66-6.38.53C32.16,50.7,33.94,47.26,36.32,46.26Zm.13,2.87c-1.56.9-.13,3.6,1.42,2.34C39.44,50.59,38,47.86,36.45,49.13Z"/><path class="cls-2" d="M48.37,46.36c3-.67,6.16,2.54,4.83,5.53-.9,3.4-6.23,3.6-7.53.4A4.1,4.1,0,0,1,48.37,46.36Zm-.47,2.81c.05.68.16,2,.21,2.73,2.13.92,2.55-1.22,3-2.75Z"/></svg>